<?xml version="1.0" standalone="no"?>
<!DOCTYPE svg PUBLIC "-//W3C//DTD SVG 20010904//EN"
 "http://www.w3.org/TR/2001/REC-SVG-20010904/DTD/svg10.dtd">
<svg version="1.0" xmlns="http://www.w3.org/2000/svg"
 width="497.000000pt" height="137.000000pt" viewBox="0 0 497.000000 137.000000"
 preserveAspectRatio="xMidYMid meet">
<metadata>
Created by potrace 1.15, written by Peter Selinger 2001-2017
</metadata>
<g transform="translate(0.000000,137.000000) scale(0.100000,-0.100000)"
fill="#000000" stroke="none">
<path d="M2095 960 c8 -16 15 -34 15 -41 0 -7 -46 -105 -101 -218 -56 -113
-117 -239 -135 -278 l-33 -73 45 0 c37 0 50 5 66 25 40 51 71 59 238 63 l155
4 18 -46 c19 -45 20 -46 63 -46 24 0 44 4 44 9 0 11 -34 87 -112 251 -36 74
-91 190 -123 258 l-58 122 -49 0 -49 0 16 -30z m135 -291 c33 -65 60 -123 60
-129 0 -6 -32 -10 -78 -10 -43 0 -102 -6 -132 -14 -30 -8 -57 -13 -59 -11 -7
7 133 294 141 289 5 -3 35 -59 68 -125z"/>
<path d="M2529 963 c5 -10 21 -29 35 -42 l26 -24 0 -274 0 -273 40 0 40 0 0
215 c0 118 3 215 8 215 4 -1 87 -98 185 -215 l178 -215 45 0 44 0 0 315 0 315
-45 0 -45 0 -2 -242 -3 -243 -155 185 c-85 102 -175 211 -200 242 l-45 57 -58
0 c-52 1 -57 -1 -48 -16z"/>
<path d="M3240 976 c0 -2 14 -20 30 -41 l30 -38 0 -273 0 -274 45 0 45 0 2
216 3 217 180 -216 180 -216 48 -1 47 0 0 315 0 315 -45 0 -45 0 0 -240 c0
-133 -4 -240 -9 -240 -5 0 -15 10 -24 23 -8 12 -58 74 -112 137 -54 63 -136
161 -183 218 l-85 102 -53 0 c-30 0 -54 -2 -54 -4z"/>
<path d="M4000 664 l0 -315 43 3 42 3 3 313 2 312 -45 0 -45 0 0 -316z"/>
<path d="M4242 972 c2 -4 41 -61 88 -125 47 -65 91 -126 98 -136 11 -17 -1
-37 -113 -185 -69 -92 -125 -169 -125 -171 0 -3 24 -5 53 -5 l52 0 98 130 c54
72 101 130 105 130 4 0 49 -59 101 -130 l95 -130 53 0 54 0 -51 72 c-28 40
-83 116 -121 168 -38 52 -69 98 -69 103 0 5 45 69 100 143 55 74 100 137 100
140 0 3 -24 4 -52 2 l-53 -3 -75 -99 c-42 -54 -79 -99 -84 -98 -4 1 -41 46
-82 102 l-75 100 -50 0 c-28 0 -49 -4 -47 -8z"/>
</g>
</svg>